<svg id="Layer_1" data-name="Layer 1" xmlns="http://www.w3.org/2000/svg" viewBox="0 0 436.836 361.286"><defs><style>.cls-1{fill:#fffef1;}</style></defs><title>mars branding drafts NEW</title><path class="cls-1" d="M5306.333,2417.11c5.434-57.413,16.173-110.156,30.957-155.292h-61.913C5290.161,2306.954,5300.9,2359.7,5306.333,2417.11Z" transform="translate(-5192.085 -2124.489)"/><path class="cls-1" d="M5420.582,2124.489h-228.5c11.654,8.722,22.768,20.255,33.178,34.332h162.142a179.749,179.749,0,0,1,23.1-25.934,179.69,179.69,0,0,1,23.1,25.934h162.142c10.41-14.077,21.524-25.61,33.177-34.332H5420.582Z" transform="translate(-5192.085 -2124.489)"/><path class="cls-1" d="M5455.024,2193.153h-208.34q8.5,15.964,16.074,34.333H5558.25q7.555-18.338,16.074-34.333h-119.3Z" transform="translate(-5192.085 -2124.489)"/><path class="cls-1" d="M5514.673,2417.11c5.434-57.413,16.173-110.156,30.957-155.292h-61.913C5498.5,2306.954,5509.24,2359.7,5514.673,2417.11Z" transform="translate(-5192.085 -2124.489)"/><path class="cls-1" d="M5366.928,2296.15h87.152q7.555-18.338,16.074-34.333h-119.3Q5359.354,2277.783,5366.928,2296.15Z" transform="translate(-5192.085 -2124.489)"/><path class="cls-1" d="M5410.5,2485.775c5.434-57.412,16.173-110.156,30.957-155.292h-61.913C5394.331,2375.619,5405.07,2428.362,5410.5,2485.775Z" transform="translate(-5192.085 -2124.489)"/></svg>